<?xml version="1.0" encoding="UTF-8"?>
<svg width="24px" height="24px" viewBox="0 0 24 24" version="1.1" xmlns="http://www.w3.org/2000/svg">
    <g stroke="none" stroke-width="1" fill="none" fill-rule="evenodd">
        <rect fill="#6B7280" x="2" y="2" width="20" height="20" rx="2"/>
        <path d="M17,5 L7,5 C6.44771525,5 6,5.44771525 6,6 L6,18 C6,18.5522847 6.44771525,19 7,19 L17,19 C17.5522847,19 18,18.5522847 18,18 L18,6 C18,5.44771525 17.5522847,5 17,5 Z M16,8 L8,8 L8,9 L16,9 L16,8 Z M16,11 L8,11 L8,12 L16,12 L16,11 Z M13,14 L8,14 L8,15 L13,15 L13,14 Z" fill="#FFFFFF"/>
    </g>
</svg>
