<?xml version="1.0" encoding="UTF-8"?>
<svg width="24px" height="24px" viewBox="0 0 24 24" version="1.1" xmlns="http://www.w3.org/2000/svg">
    <g stroke="none" stroke-width="1" fill="none" fill-rule="evenodd">
        <rect fill="#EF4444" x="2" y="2" width="20" height="20" rx="2"/>
        <path d="M12,6 C12.5522847,6 13,6.44771525 13,7 L13,13 C13,13.5522847 12.5522847,14 12,14 C11.4477153,14 11,13.5522847 11,13 L11,7 C11,6.44771525 11.4477153,6 12,6 Z M12,15 C12.5522847,15 13,15.4477153 13,16 L13,17 C13,17.5522847 12.5522847,18 12,18 C11.4477153,18 11,17.5522847 11,17 L11,16 C11,15.4477153 11.4477153,15 12,15 Z" fill="#FFFFFF"/>
    </g>
</svg>
