<?xml version="1.0" encoding="UTF-8"?>
<svg width="24px" height="24px" viewBox="0 0 24 24" version="1.1" xmlns="http://www.w3.org/2000/svg">
    <g stroke="none" stroke-width="1" fill="none" fill-rule="evenodd">
        <rect fill="#217346" x="2" y="2" width="20" height="20" rx="2"/>
        <path d="M6,5 L18,5 C18.5522847,5 19,5.44771525 19,6 L19,18 C19,18.5522847 18.5522847,19 18,19 L6,19 C5.44771525,19 5,18.5522847 5,18 L5,6 C5,5.44771525 5.44771525,5 6,5 Z M7,8 L10,8 L10,10 L7,10 L7,8 Z M11,8 L14,8 L14,10 L11,10 L11,8 Z M15,8 L17,8 L17,10 L15,10 L15,8 Z M7,11 L10,11 L10,13 L7,13 L7,11 Z M11,11 L14,11 L14,13 L11,13 L11,11 Z M15,11 L17,11 L17,13 L15,13 L15,11 Z M7,14 L10,14 L10,16 L7,16 L7,14 Z M11,14 L14,14 L14,16 L11,16 L11,14 Z M15,14 L17,14 L17,16 L15,16 L15,14 Z" fill="#FFFFFF"/>
    </g>
</svg>
